<svg id="Capa_1" enable-background="new 0 0 512 512" height="512" viewBox="0 0 512 512" width="512" xmlns="http://www.w3.org/2000/svg"><g><path d="m453.23 322.512c0-103.704-80.451-188.974-182.23-196.664v-75.36h-30v75.377c-24.786 1.875-48.311 8.337-69.714 18.559l-38.479-66.055-25.869 15.191 38.339 65.815c-23.476 15.984-43.339 36.895-58.088 61.236l-69.447-35.601-13.596 26.743 69.504 35.631c-9.58 23.168-14.881 48.539-14.881 75.128z" fill="#fc0"/><path d="m507.854 211.753-13.596-26.743-69.68 35.214c-14.91-24.482-35.003-45.475-58.741-61.451l39.554-65.212-25.869-15.191-39.787 65.597c-21.141-9.954-44.325-16.255-68.734-18.102v-75.377h-15v74.794 59.728 137.502h197.23c0-26.749-5.363-52.266-15.053-75.547z" fill="#ff9e22"/><g fill="#00bff0"><path d="m0 307.512h512v30h-512z"/><path d="m64 369.512h384v30h-384z"/><path d="m192 431.512h128v30h-128z"/></g><path d="m256 431.512h64v30h-64z" fill="#00a9de"/><path d="m256 369.512h192v30h-192z" fill="#00a9de"/><path d="m256 307.512h256v30h-256z" fill="#00a9de"/></g></svg>