<svg id="Capa_1" enable-background="new 0 0 509.584 509.584" height="512" viewBox="0 0 509.584 509.584" width="512" xmlns="http://www.w3.org/2000/svg"><g><path d="m299.36 142.097-14.31 4.49-43.77 149.44c-79.734 32.134-49.787 20.067-119.96 48.34-17.924-3.225-35.022-9.487-50.89-18.65-40.391-23.317-54.791-52.735-70.43-79.5 31.331.167 25.914.14 27 .14 98.941 0 159.553-107.369 110.11-191.93l-13.27-22.7c31.245.154 63.622-2.119 104.06 21.24 34.26 19.781 59.64 51.441 71.46 89.13z" fill="#fc0"/><path d="m299.36 142.097-14.31 4.49-43.77 149.44-64.34 25.93v-287.63c56.113 10.065 104.398 50.305 122.42 107.77z" fill="#ff9e22"/><path d="m509.58 301.208c0 44.47-35.91 80.65-80.04 80.65h-58.62v-15c-72.26-58.433-37.744-30.523-151.82-122.76h-15v-8.55c0-28.75 11.1-55.78 31.25-76.1 62.101-62.778 169.185-26.702 181.37 61.1h12.82c44.187-.001 80.04 36.04 80.04 80.66z" fill="#cef2fb"/><path d="m429.54 381.858h-58.62v-15l-57.38-46.4v-192.57c52.68 1.28 96.04 41.21 103.18 92.66 17.29 0 44.231-1.792 69.47 23.68 50.116 50.614 14.371 137.63-56.65 137.63z" fill="#a7eaf9"/><path d="m453.58 414.858c0 34.792-28.152 63-63 63h-252c-45.77 0-83-37.23-83-83 0-45.839 37.102-83 83-83h14.01c6.99-51.55 49.5-91.96 101.99-95.72 66.241-4.515 102.26 48.919 102.26 111.72l-2.76 52.085 43.117 1.362c34.74-.001 56.383-1.187 56.383 33.553z" fill="#e6f8fc"/><path d="m453.58 414.858c0 34.792-28.152 63-63 63h-136v-261.72c66.241-4.515 119 47.919 119 110.72v25h17c34.74 0 63 28.26 63 63z" fill="#cef2fb"/></g></svg>