<svg id="Capa_1" enable-background="new 0 0 511.005 511.005" height="512" viewBox="0 0 511.005 511.005" width="512" xmlns="http://www.w3.org/2000/svg"><g><path d="m511.005 235.002v-30h-82.02c-.73-5.4-1.85-10.68-3.34-15.81 21.013-8.067 47.799-18.347 76.065-29.196l-10.75-28.008c-86.351 33.143-69.059 26.506-77.516 29.752-2.38-3.849-4.989-7.529-7.799-11.048l59.97-59.97-21.22-21.21-60.49 60.5c-3.23-2.34-6.59-4.51-10.07-6.5 21.17-47.553-14.144 31.753 33.253-74.688l-27.406-12.203c-6.471 14.531-27.001 60.638-33.708 75.701-3.909-.98-7.909-1.75-11.968-2.3v-82.02h-30v82.03c-4.028.56-8.016 1.339-11.955 2.319l-33.672-75.63-27.406 12.202c48.721 109.431 14.049 31.562 33.213 74.599-3.472 1.971-6.835 4.14-10.085 6.48l-60.489-60.489-21.213 21.213 67.683 67.683 18.623 104.123c138.072 4.305 126.968 3.532 126.1 4.69l24.34 17.54c1.439-1.999 2.788-4.047 4.087-6.116l74.882 33.339 12.202-27.406-74.791-33.298c1.56-5.31 2.71-10.749 3.46-16.279z" fill="#fc0"/><path d="m428.985 235.002c-.75 5.53-1.9 10.97-3.46 16.28l74.791 33.297-12.202 27.406-74.879-33.343c-1.3 2.07-2.65 4.12-4.09 6.12l-24.34-17.54c.802-1.07 7.707-.527-65.8-2.81v-236.41h15v82.02c4.06.55 8.06 1.32 11.97 2.3l33.707-75.701 27.406 12.203-33.253 74.688c3.48 1.99 6.84 4.16 10.07 6.5l60.49-60.5 21.22 21.21-59.97 59.97c2.81 3.52 5.42 7.2 7.8 11.05l77.515-29.754 10.75 28.008-76.065 29.196c1.49 5.13 2.61 10.41 3.34 15.81h82.02v30z" fill="#ff9e22"/><path d="m305.485 231.832v8.47h-15l-62.74 111.7c-19.562 5.459-6.889 1.937-89.08 24.91h-58.62c-71.51 0-106.57-86.64-56.6-136.64 15.12-15.11 35.22-23.44 56.6-23.44h12.84c7.386-52.395 52.555-91.83 105.77-91.83 58.889 0 106.83 47.636 106.83 106.83z" fill="#cef2fb"/><path d="m305.485 231.832v8.47h-3.26l-62.74 111.7-30.42 8.51c0-197.335-.39-229.999.37-234.97 53.93 5.39 96.05 50.84 96.05 106.29z" fill="#a7eaf9"/><path d="m510.005 420.002c0 34.792-28.152 63-63 63h-252c-45.77 0-83-37.23-83-83 0-45.839 37.102-83 83-83h14.01c6.99-51.55 49.5-91.96 101.99-95.72 71.983-4.908 50.872 55.234 50.872 118.188l68.128 17.532h17c34.74 0 63 28.26 63 63z" fill="#e6f8fc"/><path d="m510.005 420.002c0 34.792-28.152 63-63 63h-128v-262c61.318 0 111 49.623 111 111v25h17c34.74 0 63 28.26 63 63z" fill="#cef2fb"/></g></svg>